<?xml version="1.0" standalone="no"?>
<!DOCTYPE svg PUBLIC "-//W3C//DTD SVG 20010904//EN"
 "http://www.w3.org/TR/2001/REC-SVG-20010904/DTD/svg10.dtd">
<svg version="1.0" xmlns="http://www.w3.org/2000/svg"
 width="512.000000pt" height="512.000000pt" viewBox="0 0 512.000000 512.000000"
 preserveAspectRatio="xMidYMid meet">

<g transform="translate(0.000000,512.000000) scale(0.100000,-0.100000)"
fill="#fff" stroke="none">
<path d="M2460 4668 c-25 -14 -58 -44 -75 -67 l-30 -43 0 -397 0 -397 25 -37
c14 -21 43 -50 64 -65 35 -24 49 -27 116 -27 65 0 82 4 113 25 21 14 50 43 65
64 l27 39 0 397 0 397 -27 39 c-44 62 -90 88 -167 92 -55 3 -74 -1 -111 -20z"/>
<path d="M1553 4431 c-94 -23 -155 -97 -161 -194 -5 -76 -8 -70 211 -447 179
-309 191 -322 305 -328 83 -4 142 23 187 86 41 59 47 149 15 213 -40 77 -321
563 -347 597 -43 57 -138 90 -210 73z"/>
<path d="M820 3719 c-13 -6 -39 -21 -57 -35 -101 -77 -101 -252 -1 -327 34
-26 520 -307 597 -347 64 -32 154 -26 213 15 63 45 90 104 86 187 -6 114 -19
126 -328 305 -360 209 -368 213 -432 212 -29 0 -64 -5 -78 -10z"/>
<path d="M540 2747 c-25 -13 -58 -43 -75 -66 -27 -39 -30 -50 -30 -120 0 -68
3 -82 27 -117 15 -21 44 -50 65 -64 l37 -25 396 0 397 0 39 27 c21 15 50 44
64 65 21 31 25 48 25 113 0 65 -4 82 -25 113 -14 21 -43 50 -64 65 l-39 27
-386 3 -387 3 -44 -24z"/>
<path d="M3740 2747 c-25 -13 -58 -43 -75 -66 -27 -39 -30 -50 -30 -120 0 -68
3 -82 27 -117 15 -21 44 -50 65 -64 l37 -25 396 0 397 0 39 27 c21 15 50 44
64 65 21 31 25 48 25 113 0 65 -4 82 -25 113 -14 21 -43 50 -64 65 l-39 27
-386 3 -387 3 -44 -24z"/>
<path d="M1290 2072 c-217 -122 -496 -285 -528 -309 -75 -56 -99 -178 -51
-263 36 -66 95 -103 172 -108 76 -5 70 -8 447 211 309 179 322 191 328 305 3
56 0 74 -20 112 -37 69 -94 104 -176 108 -66 3 -69 2 -172 -56z"/>
<path d="M3569 2107 c-24 -13 -57 -43 -74 -66 -27 -39 -30 -50 -30 -121 0
-126 7 -133 325 -317 377 -219 371 -216 447 -211 77 5 136 42 172 108 48 85
24 207 -51 263 -35 27 -509 302 -589 343 -64 32 -140 33 -200 1z"/>
<path d="M1822 1639 c-24 -12 -53 -36 -66 -53 -24 -32 -307 -519 -346 -595
-32 -64 -26 -154 16 -213 81 -115 256 -123 337 -16 26 34 307 520 347 597 32
64 26 154 -15 213 -60 84 -179 113 -273 67z"/>
<path d="M3100 1638 c-67 -36 -103 -94 -108 -172 -3 -50 0 -71 18 -107 40 -77
321 -563 347 -597 56 -75 178 -99 263 -51 66 36 103 95 108 172 5 76 8 70
-211 447 -179 309 -191 322 -305 328 -56 3 -74 0 -112 -20z"/>
<path d="M2460 1468 c-25 -14 -58 -44 -75 -67 l-30 -43 0 -397 0 -397 25 -37
c14 -21 43 -50 64 -65 35 -24 49 -27 116 -27 65 0 82 4 113 25 21 14 50 43 65
64 l27 39 0 397 0 397 -27 39 c-44 62 -90 88 -167 92 -55 3 -74 -1 -111 -20z"/>
</g>
</svg>
